<?xml version="1.0" encoding="utf-8"?>
<!-- Generator: Adobe Illustrator 16.2.1, SVG Export Plug-In . SVG Version: 6.00 Build 0)  -->
<!DOCTYPE svg PUBLIC "-//W3C//DTD SVG 1.1//EN" "http://www.w3.org/Graphics/SVG/1.1/DTD/svg11.dtd">
<svg version="1.1" id="Layer_2" xmlns="http://www.w3.org/2000/svg" xmlns:xlink="http://www.w3.org/1999/xlink" x="0px" y="0px"
	 width="120px" height="120px" viewBox="0 0 120 120" enable-background="new 0 0 120 120" xml:space="preserve">
<path fill="#F2EDE3" d="M60,0.5C27.139,0.5,0.5,27.139,0.5,60c0,32.86,26.639,59.5,59.5,59.5c32.86,0,59.5-26.64,59.5-59.5
	C119.5,27.139,92.86,0.5,60,0.5z M78.842,36.152l-6.661,0.003c-5.27,0-6.23,2.504-6.23,6.179v7.749h12.146l-1.638,12.891H65.95V95.7
	H52.067V62.975H41.158V50.083h10.909v-9.005c0-10.863,6.962-16.778,16.652-16.778c4.644,0,9.131,0.345,10.123,0.5V36.152z"/>
</svg>
