<?xml version="1.0" encoding="utf-8"?>
<!-- Generator: Adobe Illustrator 16.2.1, SVG Export Plug-In . SVG Version: 6.00 Build 0)  -->
<!DOCTYPE svg PUBLIC "-//W3C//DTD SVG 1.1//EN" "http://www.w3.org/Graphics/SVG/1.1/DTD/svg11.dtd">
<svg version="1.1" id="Layer_2" xmlns="http://www.w3.org/2000/svg" xmlns:xlink="http://www.w3.org/1999/xlink" x="0px" y="0px"
	 width="120px" height="120px" viewBox="0 0 120 120" enable-background="new 0 0 120 120" xml:space="preserve">
<path fill="#F2EDE3" d="M60,0.5C27.139,0.5,0.5,27.139,0.5,60c0,32.86,26.639,59.5,59.5,59.5c32.86,0,59.5-26.64,59.5-59.5
	C119.5,27.139,92.86,0.5,60,0.5z M88.391,47.421c0.027,0.629,0.042,1.261,0.042,1.896c0,19.358-14.733,41.678-41.677,41.678
	c-8.273,0-15.972-2.425-22.456-6.582c1.146,0.136,2.312,0.205,3.494,0.205c6.863,0,13.179-2.342,18.193-6.271
	c-6.411-0.118-11.819-4.354-13.684-10.173c0.895,0.171,1.812,0.263,2.756,0.263c1.335,0,2.189-0.179,3.416-0.514
	c-6.7-1.346-12.191-7.266-12.191-14.363c0-0.062,0-0.123,0-0.185c1.983,1.097,4.676,1.756,7.078,1.833
	c-3.93-2.626-6.295-7.111-6.295-12.193c0-2.685,0.833-5.2,2.094-7.364c7.224,8.863,18.074,14.694,30.248,15.306
	c-0.25-1.072-0.352-2.19-0.352-3.338c0-8.089,6.574-14.648,14.664-14.648c4.213,0,8.027,1.779,10.699,4.626
	c3.336-0.657,6.474-1.876,9.305-3.555c-1.094,3.421-3.414,6.292-6.439,8.104c2.964-0.354,5.787-1.141,8.415-2.307
	C93.736,42.776,91.253,45.356,88.391,47.421z"/>
</svg>
